   <svg
                    className="h-10 sm:h-14 w-10 sm:w-14"
                    width="59"
                    height="57"
                    viewBox="0 0 59 57"
                    fill="none"
                    xmlns="http://www.w3.org/2000/svg"
                  >
                    <path
                      d="M19.697 19.7899C20.0368 20.2265 20.5554 20.4565 21.0803 20.4565C21.4422 20.4565 21.8072 20.3469 22.1183 20.1208C22.8817 19.5663 23.0352 18.5187 22.4613 17.7816C21.3188 16.3135 20.6895 14.4939 20.6895 12.6575C20.6895 10.6931 21.3994 8.77403 22.6881 7.25458C23.2931 6.54095 23.1851 5.48811 22.4464 4.9032C21.7077 4.31873 20.618 4.4231 20.0125 5.13673C18.2188 7.25197 17.2307 9.92297 17.2307 12.6575C17.2307 15.2141 18.1067 17.7468 19.697 19.7899Z"
                      fill="#2D67F6"
                    ></path>
                    <path
                      d="M16.0032 24.9405C16.3867 24.9405 16.7725 24.8179 17.093 24.5661C17.8344 23.9843 17.9464 22.9319 17.3442 22.216C15.0777 19.5229 13.83 16.1282 13.83 12.6575C13.83 9.02627 15.1817 5.51204 17.6368 2.76189C18.2602 2.06348 18.1796 1.00847 17.4563 0.405736C16.7333 -0.196566 15.6413 -0.118723 15.0174 0.579687C12.0213 3.93606 10.3711 8.22567 10.3711 12.6579C10.3711 16.8936 11.8944 21.0367 14.6605 24.3239C15.0021 24.7301 15.5004 24.9405 16.0032 24.9405Z"
                      fill="#2D67F6"
                    ></path>
                    <path
                      d="M38.3424 12.6575C38.3424 14.4939 37.7136 16.3139 36.5707 17.7816C35.9968 18.5192 36.1503 19.5663 36.9137 20.1208C37.2247 20.3469 37.5898 20.4565 37.9517 20.4565C38.4765 20.4565 38.9951 20.2265 39.335 19.7899C40.9253 17.7468 41.8012 15.2137 41.8012 12.6575C41.8012 9.92297 40.8136 7.25197 39.0194 5.13673C38.414 4.4231 37.3247 4.31873 36.5855 4.9032C35.8473 5.48811 35.7388 6.54051 36.3443 7.25414C37.633 8.77447 38.3424 10.6931 38.3424 12.6575Z"
                      fill="#2D67F6"
                    ></path>
                    <path
                      d="M45.202 12.658C45.202 16.1287 43.9542 19.5234 41.6878 22.2165C41.0851 22.9323 41.1976 23.9847 41.939 24.5666C42.2595 24.8184 42.6452 24.941 43.0288 24.941C43.5311 24.941 44.0299 24.7301 44.3715 24.3239C47.1376 21.0372 48.6608 16.8941 48.6608 12.658C48.6608 8.22572 47.0107 3.93655 44.0146 0.580178C43.3907 -0.118667 42.2986 -0.19651 41.5753 0.406227C40.8524 1.00853 40.7718 2.06354 41.3952 2.76238C43.8503 5.51254 45.202 9.02676 45.202 12.658V12.658Z"
                      fill="#2D67F6"
                    ></path>
                    <path
                      d="M45.7737 53.6587H40.919L32.0824 17.271C33.7803 16.3848 34.9367 14.6492 34.9367 12.6574C34.9367 9.76858 32.5037 7.41808 29.5135 7.41808C26.5233 7.41808 24.0903 9.76858 24.0903 12.6574C24.0903 14.6496 25.2467 16.3848 26.9446 17.271L18.108 53.6587H13.2628C12.3076 53.6587 11.5334 54.4067 11.5334 55.3295C11.5334 56.2519 12.3076 56.9998 13.2628 56.9998H45.7737C46.7288 56.9998 47.5031 56.2519 47.5031 55.3295C47.5031 54.4067 46.7288 53.6587 45.7737 53.6587ZM34.1026 40.2193L27.4897 36.4103L32.4902 33.5797L34.1026 40.2193ZM29.5135 10.7597C30.597 10.7597 31.4783 11.6111 31.4783 12.6574C31.4783 13.7042 30.597 14.5557 29.5135 14.5557C28.4305 14.5557 27.5491 13.7042 27.5491 12.6574C27.5491 11.6111 28.4305 10.7597 29.5135 10.7597ZM29.5135 21.3223L31.6633 30.1751L26.6786 32.997L29.5135 21.3223ZM25.2219 38.9943L33.3167 43.6566L22.6031 49.7792L25.2219 38.9943ZM22.6076 53.6587L35.5678 46.2524L37.3661 53.6587H22.6076Z"
                      fill="#2D67F6"
                    ></path>
                  </svg>